<svg xmlns="http://www.w3.org/2000/svg" xmlns:xlink="http://www.w3.org/1999/xlink" height="800px" width="800px" id="Layer_1" viewBox="0 0 512.001 512.001" xml:space="preserve"><path style="fill:#E88158;" d="M340.533,39.215c-1.555,0.506-3.111,1.011-4.666,1.517c-40.95,13.305-69.018,50.419-71.965,93.376 c-5.951,86.752-77.058,157.859-163.81,163.81c-42.957,2.946-80.071,31.016-93.376,71.965c-0.506,1.555-1.011,3.111-1.517,4.666 c-22.646,69.7,31.703,140.508,104.88,136.514c195.521-10.672,356.295-171.447,366.968-366.968 C481.042,70.918,410.232,16.569,340.533,39.215z"></path><path style="fill:#D37250;" d="M104.181,478.429c-22.993-0.001-44-10.765-57.634-29.532c-13.623-18.752-17.325-42.156-10.158-64.214 l1.513-4.66c9.08-27.944,34.37-47.328,64.434-49.39c49.86-3.42,97.148-25.13,133.149-61.134 c36.003-36.002,57.713-83.289,61.132-133.151c2.063-30.063,21.445-55.353,49.381-64.431l4.665-1.514 c7.339-2.386,14.856-3.594,22.34-3.594c19.427,0,38.375,8.245,51.988,22.622c13.532,14.292,20.39,33.069,19.309,52.873 c-9.754,178.665-157.345,326.257-336.01,336.01c-1.369,0.075-2.751,0.113-4.105,0.113 C104.185,478.429,104.183,478.429,104.181,478.429z"></path><g>	<path style="fill:#E88158;" d="M501.753,132.458h-32.605c-5.661,0-10.248-4.589-10.248-10.248s4.587-10.248,10.248-10.248h32.605  c5.661,0,10.248,4.589,10.248,10.248S507.414,132.458,501.753,132.458z"></path>	<path style="fill:#E88158;" d="M494.534,223.675c-1.376,0-2.774-0.279-4.116-0.868l-31.503-13.834  c-5.183-2.277-7.539-8.322-5.264-13.505c2.275-5.182,8.319-7.54,13.505-5.264l31.503,13.834c5.183,2.276,7.539,8.322,5.264,13.505  C502.237,221.385,498.478,223.675,494.534,223.675z"></path>	<path style="fill:#E88158;" d="M125.855,311.238c-5.661,0-10.248-4.589-10.248-10.248v-30.23c0-5.66,4.587-10.248,10.248-10.248  s10.248,4.589,10.248,10.248v30.23C136.104,306.65,131.517,311.238,125.855,311.238z"></path>	<path style="fill:#E88158;" d="M78.994,318.58c-4.239,0-8.203-2.648-9.677-6.877l-9.073-26.025  c-1.862-5.344,0.959-11.187,6.303-13.051c5.346-1.861,11.187,0.959,13.051,6.303l9.073,26.025  c1.862,5.344-0.959,11.187-6.303,13.051C81.252,318.396,80.112,318.58,78.994,318.58z"></path>	<path style="fill:#E88158;" d="M335.869,57.811c-2.742,0-5.477-1.093-7.494-3.255l-20.639-22.109  c-3.862-4.138-3.639-10.623,0.497-14.484c4.139-3.863,10.624-3.639,14.486,0.499l20.639,22.109  c3.862,4.138,3.639,10.623-0.497,14.484C340.884,56.899,338.374,57.811,335.869,57.811z"></path>	<path style="fill:#E88158;" d="M372.998,51.099c-0.486,0-0.978-0.034-1.473-0.107c-5.602-0.806-9.49-6.001-8.684-11.604  l4.291-29.824c0.808-5.602,6.011-9.486,11.604-8.684c5.602,0.806,9.49,6.001,8.684,11.604l-4.292,29.825  C382.394,47.417,378.01,51.099,372.998,51.099z"></path>	<path style="fill:#E88158;" d="M273.768,506.498c-4.058,0-7.898-2.424-9.509-6.418l-11.924-29.567  c-2.117-5.249,0.424-11.22,5.672-13.337c5.249-2.118,11.22,0.422,13.338,5.672l11.924,29.567c2.117,5.249-0.424,11.22-5.672,13.337  C276.34,506.258,275.043,506.498,273.768,506.498z"></path>	<path style="fill:#E88158;" d="M318.489,483.408c-2.275,0-4.564-0.753-6.465-2.302l-28.344-23.089  c-4.389-3.575-5.048-10.03-1.473-14.419c3.573-4.388,10.028-5.048,14.417-1.473l28.344,23.089  c4.389,3.575,5.048,10.03,1.473,14.419C324.415,482.12,321.465,483.408,318.489,483.408z"></path>	<path style="fill:#E88158;" d="M350.233,448.778c-1.737,0-3.498-0.443-5.111-1.372l-24.611-14.192  c-4.903-2.827-6.585-9.094-3.758-13.998c2.827-4.904,9.094-6.586,13.998-3.758l24.611,14.192c4.903,2.827,6.585,9.094,3.758,13.998  C357.222,446.938,353.775,448.778,350.233,448.778z"></path></g><g>	<circle style="fill:#F7A872;" cx="354.909" cy="166.529" r="25.252"></circle>	<circle style="fill:#F7A872;" cx="175.617" cy="419.404" r="29.22"></circle>	<circle style="fill:#F7A872;" cx="335.423" cy="285.574" r="41.846"></circle>	<circle style="fill:#F7A872;" cx="124.676" cy="111.919" r="41.846"></circle>	<path style="fill:#F7A872;" d="M143.708,96.11c-2.624,0-5.246-1-7.248-3.002c-4.002-4.002-4.002-10.492,0.001-14.493l21.655-21.655  c4.005-4.004,10.493-4.002,14.494,0c4.002,4.002,4.002,10.492-0.001,14.493L150.954,93.11  C148.954,95.11,146.33,96.11,143.708,96.11z"></path>	<path style="fill:#F7A872;" d="M171.819,164.925c-2.622,0-5.246-1-7.248-3.002l-18.804-18.804c-4.002-4.002-4.002-10.492,0-14.493  c4.004-4.002,10.492-4.002,14.494,0l18.804,18.804c4.002,4.002,4.002,10.492,0,14.493  C177.064,163.924,174.441,164.925,171.819,164.925z"></path>	<path style="fill:#F7A872;" d="M101.166,115.637c-1.97,1.73-4.604,2.707-7.428,2.524l-26.535-1.733  c-5.648-0.369-9.927-5.247-9.558-10.895c0.37-5.649,5.247-9.927,10.895-9.56l26.535,1.733c5.648,0.369,9.927,5.247,9.558,10.895  C104.45,111.424,103.138,113.907,101.166,115.637z"></path>	<path style="fill:#F7A872;" d="M128.759,181.332c-4.91,0-9.247-3.536-10.093-8.539l-4.088-24.149  c-0.944-5.581,2.814-10.87,8.394-11.814c5.601-0.944,10.871,2.815,11.814,8.394l4.088,24.149c0.944,5.581-2.814,10.87-8.394,11.814  C129.901,181.284,129.326,181.332,128.759,181.332z"></path>	<circle style="fill:#F7A872;" cx="381.35" cy="102.046" r="10.248"></circle>	<circle style="fill:#F7A872;" cx="400.097" cy="207.536" r="10.248"></circle>	<circle style="fill:#F7A872;" cx="319.299" cy="358.897" r="10.248"></circle>	<circle style="fill:#F7A872;" cx="224.878" cy="323.165" r="10.248"></circle>	<circle style="fill:#F7A872;" cx="101.405" cy="400.738" r="10.248"></circle></g></svg>
